<svg width="19" height="18" viewBox="0 0 19 18" fill="none" xmlns="http://www.w3.org/2000/svg">
<path d="M8.75049 13.5H10.2505V12H8.75049V13.5ZM9.50049 1.5C5.36049 1.5 2.00049 4.86 2.00049 9C2.00049 13.14 5.36049 16.5 9.50049 16.5C13.6405 16.5 17.0005 13.14 17.0005 9C17.0005 4.86 13.6405 1.5 9.50049 1.5ZM9.50049 15C6.19299 15 3.50049 12.3075 3.50049 9C3.50049 5.6925 6.19299 3 9.50049 3C12.808 3 15.5005 5.6925 15.5005 9C15.5005 12.3075 12.808 15 9.50049 15ZM9.50049 4.5C7.84299 4.5 6.50049 5.8425 6.50049 7.5H8.00049C8.00049 6.675 8.67549 6 9.50049 6C10.3255 6 11.0005 6.675 11.0005 7.5C11.0005 9 8.75049 8.8125 8.75049 11.25H10.2505C10.2505 9.5625 12.5005 9.375 12.5005 7.5C12.5005 5.8425 11.158 4.5 9.50049 4.5Z" fill="black"/>
</svg>
