<svg width="108" height="24" viewBox="0 0 108 24" fill="none" xmlns="http://www.w3.org/2000/svg">
<path d="M44.836 4.60002V18.4H42.436V7.58302H42.4L38.119 18.4H36.531L32.142 7.58302H32.113V18.4H29.9V4.60002H33.336L37.3 14.83H37.358L41.545 4.60002H44.836ZM46.836 5.64902C46.8324 5.46722 46.868 5.28677 46.9403 5.11993C47.0126 4.95308 47.1199 4.80373 47.255 4.68202C47.5241 4.42555 47.8834 4.28542 48.255 4.29202C48.4433 4.28623 48.6307 4.31869 48.806 4.38745C48.9814 4.4562 49.1409 4.55981 49.275 4.69202C49.4039 4.81566 49.506 4.96453 49.5748 5.12936C49.6436 5.29418 49.6777 5.47142 49.675 5.65002C49.6785 5.82928 49.6434 6.0072 49.5719 6.17165C49.5005 6.3361 49.3944 6.48323 49.261 6.60302C48.9878 6.85873 48.6251 6.99698 48.251 6.98802C48.0669 6.99239 47.8836 6.96036 47.7119 6.89378C47.5401 6.8272 47.3831 6.72737 47.25 6.60002C47.1188 6.47981 47.0145 6.33319 46.9441 6.1698C46.8736 6.00641 46.8384 5.82995 46.841 5.65202M49.41 18.4H47.081V8.50702H49.41V18.4ZM56.474 16.706C56.8672 16.6964 57.2553 16.6148 57.619 16.465C58.0313 16.3073 58.42 16.0937 58.774 15.83V18C58.3777 18.2211 57.9512 18.3831 57.508 18.481C56.9979 18.5945 56.4766 18.6495 55.954 18.645C55.3011 18.6749 54.6491 18.5686 54.0395 18.3326C53.43 18.0967 52.8762 17.7364 52.4136 17.2747C51.9509 16.813 51.5895 16.26 51.3523 15.6509C51.1151 15.0418 51.0074 14.39 51.036 13.737C50.9828 12.2956 51.4838 10.8885 52.436 9.80502C52.9438 9.27608 53.5605 8.86391 54.2434 8.59713C54.9264 8.33034 55.6592 8.21531 56.391 8.26002C56.8376 8.2612 57.2823 8.31763 57.715 8.42802C58.0846 8.51203 58.4418 8.6431 58.778 8.81802V11.051C58.44 10.7996 58.0701 10.5941 57.678 10.44C57.3114 10.2973 56.9215 10.2237 56.528 10.223C56.1149 10.207 55.7031 10.279 55.3198 10.4342C54.9366 10.5893 54.5907 10.8241 54.305 11.123C53.7159 11.7856 53.4116 12.6536 53.458 13.539C53.4324 13.9631 53.491 14.3881 53.6306 14.7894C53.7701 15.1907 53.9878 15.5603 54.271 15.877C54.5612 16.1619 54.9074 16.3834 55.2876 16.5275C55.6679 16.6716 56.0739 16.7351 56.48 16.714M65.4 8.34302C65.5675 8.34181 65.7348 8.35486 65.9 8.38202C66.0278 8.40371 66.1534 8.43718 66.275 8.48202V10.84C66.1104 10.7295 65.9305 10.6436 65.741 10.585C65.4655 10.4988 65.1777 10.4583 64.889 10.465C64.6082 10.4646 64.3311 10.5297 64.0798 10.655C63.8284 10.7803 63.6097 10.9625 63.441 11.187C62.9964 11.839 62.7876 12.6232 62.849 13.41V18.4H60.525V8.50702H62.854V10.066H62.892C63.0802 9.55776 63.4154 9.11703 63.855 8.80002C64.309 8.48863 64.8497 8.32868 65.4 8.34302ZM66.4 13.597C66.3634 12.8893 66.4676 12.1813 66.7066 11.5141C66.9455 10.8468 67.3145 10.2337 67.792 9.71002C68.2992 9.2171 68.9034 8.83506 69.5662 8.58819C70.229 8.34132 70.9359 8.23501 71.642 8.27602C72.3091 8.23796 72.9767 8.34131 73.6011 8.57931C74.2255 8.8173 74.7925 9.18456 75.265 9.65702C76.1707 10.6814 76.6376 12.0206 76.565 13.386C76.6004 14.0845 76.496 14.7831 76.258 15.4407C76.02 16.0984 75.6532 16.7019 75.179 17.216C74.6829 17.7013 74.0915 18.0783 73.4423 18.3234C72.7931 18.5685 72.1 18.6763 71.407 18.64C70.7384 18.6742 70.0699 18.5719 69.442 18.3395C68.8142 18.107 68.2402 17.7493 67.755 17.288C67.2923 16.7966 66.9341 16.2163 66.7022 15.5824C66.4704 14.9485 66.3696 14.274 66.406 13.6M68.831 13.523C68.7721 14.3708 69.0206 15.2115 69.531 15.891C69.7834 16.1695 70.0952 16.3876 70.4433 16.5292C70.7914 16.6708 71.1669 16.7323 71.542 16.709C71.9058 16.7324 72.27 16.6706 72.6057 16.5286C72.9414 16.3866 73.2394 16.1683 73.476 15.891C73.9674 15.182 74.2016 14.3264 74.14 13.466C74.2025 12.6063 73.9588 11.7523 73.452 11.055C73.2133 10.782 72.9155 10.5669 72.5813 10.426C72.2471 10.2851 71.8852 10.2222 71.523 10.242C71.1485 10.2217 70.7742 10.2879 70.4295 10.4357C70.0847 10.5835 69.7786 10.8087 69.535 11.094C69.0216 11.796 68.7713 12.6562 68.828 13.524M80.028 11.108C80.0204 11.2542 80.0449 11.4002 80.0998 11.5358C80.1548 11.6715 80.2388 11.7934 80.346 11.893C80.7754 12.1987 81.247 12.4403 81.746 12.61C82.4928 12.8604 83.1658 13.2919 83.705 13.866C84.0856 14.3452 84.285 14.9433 84.268 15.555C84.2807 15.9862 84.1904 16.4143 84.0047 16.8036C83.819 17.193 83.5431 17.5325 83.2 17.794C82.3578 18.3978 81.3349 18.6966 80.3 18.641C79.8422 18.6362 79.386 18.5862 78.938 18.492C78.5037 18.4119 78.0795 18.2845 77.673 18.112V15.822C78.0952 16.1156 78.555 16.3511 79.04 16.522C79.4647 16.6835 79.9138 16.7714 80.368 16.782C80.7685 16.8083 81.1691 16.7323 81.532 16.561C81.6572 16.4845 81.7585 16.3746 81.8247 16.2438C81.891 16.1129 81.9195 15.9662 81.907 15.82C81.908 15.6638 81.8734 15.5094 81.8058 15.3685C81.7382 15.2277 81.6395 15.104 81.517 15.007C81.0642 14.682 80.5667 14.4243 80.04 14.242C79.3408 13.9925 78.713 13.5761 78.211 13.029C77.8378 12.538 77.6473 11.9323 77.672 11.316C77.6642 10.8916 77.7564 10.4714 77.9411 10.0892C78.1257 9.70704 78.3977 9.37366 78.735 9.11602C79.5273 8.51399 80.506 8.20959 81.5 8.25602C81.8906 8.26016 82.2801 8.29864 82.664 8.37102C83.0332 8.43165 83.3946 8.53225 83.742 8.67102V10.885C83.4054 10.6658 83.0434 10.4882 82.664 10.356C82.2726 10.2121 81.8591 10.1373 81.442 10.135C81.0789 10.1141 80.7181 10.2048 80.408 10.395C80.2906 10.4722 80.1949 10.5782 80.1299 10.7028C80.065 10.8274 80.033 10.9666 80.037 11.107M85.278 13.6C85.2402 12.8922 85.3433 12.1839 85.5812 11.5161C85.8191 10.8484 86.1872 10.2345 86.664 9.71002C87.1711 9.21723 87.7752 8.83527 88.4378 8.5884C89.1004 8.34153 89.8071 8.23516 90.513 8.27602C91.1803 8.23788 91.8481 8.34119 92.4726 8.57919C93.0972 8.81718 93.6644 9.18449 94.137 9.65702C95.0427 10.6814 95.5096 12.0206 95.437 13.386C95.4723 14.0845 95.3679 14.783 95.1299 15.4406C94.8919 16.0983 94.5251 16.7019 94.051 17.216C93.5548 17.7013 92.9632 18.0784 92.3138 18.3236C91.6644 18.5687 90.9712 18.6764 90.278 18.64C89.6094 18.6742 88.9408 18.572 88.313 18.3396C87.6852 18.1071 87.1112 17.7494 86.626 17.288C86.1635 16.7965 85.8055 16.2162 85.5738 15.5823C85.3421 14.9483 85.2414 14.274 85.278 13.6ZM87.703 13.523C87.6443 14.3708 87.8928 15.2114 88.403 15.891C88.6554 16.1694 88.9672 16.3875 89.3153 16.5291C89.6634 16.6707 90.0389 16.7322 90.414 16.709C90.7778 16.7324 91.142 16.6706 91.4777 16.5286C91.8134 16.3866 92.1114 16.1683 92.348 15.891C92.8394 15.182 93.0736 14.3264 93.012 13.466C93.0745 12.6063 92.8308 11.7523 92.324 11.055C92.0851 10.7819 91.7872 10.5667 91.4528 10.4259C91.1184 10.285 90.7563 10.2221 90.394 10.242C90.0196 10.2217 89.6456 10.2881 89.301 10.4358C88.9564 10.5836 88.6504 10.8088 88.407 11.094C87.8936 11.796 87.6433 12.6562 87.7 13.524M103.164 10.415H99.7V18.4H97.341V10.412H95.686V8.50702H97.341V7.13002C97.3244 6.65712 97.406 6.1859 97.5807 5.74614C97.7554 5.30638 98.0194 4.90761 98.356 4.57502C98.7 4.24216 99.1075 3.98205 99.5542 3.81023C100.001 3.63842 100.478 3.55842 100.956 3.57502C101.207 3.57311 101.458 3.58747 101.707 3.61802C101.903 3.6422 102.096 3.68574 102.284 3.74802V5.76402C102.156 5.69754 102.022 5.64265 101.884 5.60002C101.669 5.5314 101.445 5.49764 101.22 5.50002C101.01 5.4872 100.8 5.5216 100.605 5.60069C100.41 5.67977 100.236 5.80154 100.094 5.95702C99.8036 6.34678 99.6637 6.82831 99.7 7.31302V8.50702H103.169V6.28302L105.508 5.57102V8.50702H107.866V10.413H105.508V15.042C105.464 15.4977 105.581 15.9543 105.84 16.332C105.977 16.4662 106.141 16.5692 106.321 16.6339C106.501 16.6987 106.693 16.7236 106.884 16.707C107.05 16.6999 107.214 16.6661 107.37 16.607C107.545 16.5504 107.713 16.4728 107.87 16.376V18.3C107.637 18.4114 107.389 18.4892 107.134 18.531C106.8 18.6007 106.46 18.6362 106.119 18.637C105.716 18.6681 105.312 18.6143 104.931 18.4793C104.551 18.3443 104.203 18.1309 103.91 17.853C103.371 17.1886 103.108 16.3429 103.174 15.49L103.164 10.415Z" fill="#737373"/>
<path d="M10.931 0H0V10.931H10.931V0Z" fill="#F25022"/>
<path d="M23 0H12.069V10.931H23V0Z" fill="#7FBA00"/>
<path d="M10.931 12.069H0V23H10.931V12.069Z" fill="#00A4EF"/>
<path d="M23 12.069H12.069V23H23V12.069Z" fill="#FFB900"/>
</svg>
